<?xml version="1.0" encoding="UTF-8"?>
<svg xmlns="http://www.w3.org/2000/svg" xmlns:xlink="http://www.w3.org/1999/xlink" width="35px" height="35px" viewBox="0 0 35 35" version="1.1">
<g id="surface1">
<path style=" stroke:none;fill-rule:nonzero;fill:rgb(100%,68.235294%,0%);fill-opacity:1;" d="M 16.703125 3.183594 L 16.703125 6.402344 C 11.183594 6.796875 6.792969 11.1875 6.390625 16.703125 L 3.183594 16.703125 L 3.183594 18.296875 L 6.402344 18.296875 C 6.796875 23.816406 11.1875 28.207031 16.703125 28.609375 L 16.703125 31.816406 L 18.296875 31.816406 L 18.296875 28.597656 C 23.816406 28.203125 28.207031 23.8125 28.609375 18.296875 L 31.816406 18.296875 L 31.816406 16.703125 L 28.597656 16.703125 C 28.203125 11.183594 23.8125 6.792969 18.296875 6.390625 L 18.296875 3.183594 Z M 16.703125 7.996094 L 16.703125 11.191406 C 13.828125 11.558594 11.558594 13.824219 11.195312 16.703125 L 7.996094 16.703125 C 8.386719 12.066406 12.066406 8.386719 16.703125 7.996094 Z M 18.296875 7.996094 C 22.933594 8.386719 26.613281 12.066406 27.003906 16.703125 L 23.808594 16.703125 C 23.441406 13.828125 21.175781 11.558594 18.296875 11.195312 Z M 16.703125 12.792969 L 16.703125 16.703125 L 12.800781 16.703125 C 13.140625 14.703125 14.703125 13.132812 16.703125 12.792969 Z M 18.296875 12.800781 C 20.296875 13.140625 21.867188 14.703125 22.207031 16.703125 L 18.296875 16.703125 Z M 7.996094 18.296875 L 11.191406 18.296875 C 11.558594 21.171875 13.824219 23.441406 16.703125 23.804688 L 16.703125 27.003906 C 12.066406 26.613281 8.386719 22.933594 7.996094 18.296875 Z M 12.792969 18.296875 L 16.703125 18.296875 L 16.703125 22.199219 C 14.703125 21.859375 13.132812 20.296875 12.792969 18.296875 Z M 18.296875 18.296875 L 22.199219 18.296875 C 21.859375 20.296875 20.296875 21.867188 18.296875 22.207031 Z M 23.804688 18.296875 L 27.003906 18.296875 C 26.613281 22.933594 22.933594 26.613281 18.296875 27.003906 L 18.296875 23.808594 C 21.171875 23.441406 23.441406 21.175781 23.804688 18.296875 Z M 23.804688 18.296875 "/>
</g>
</svg>
